<svg xmlns="http://www.w3.org/2000/svg">
    <path d="M78.335 14.33a2.295 2.295 0 1 0 0 4.59 2.295 2.295 0 0 0 0-4.59M70.796 7.228v-.781h3.657v12.215h-3.657v-.78a6.445 6.445 0 1 1 0-10.653zm-3.326 8.47c1.83 0 3.314-1.408 3.314-3.143 0-1.736-1.484-3.143-3.314-3.143s-3.314 1.407-3.314 3.143c0 1.735 1.484 3.142 3.314 3.142zM54.226 6.118c-1.46 0-2.843.454-3.768 1.705V6.447h-3.641v12.215h3.686v-6.42c0-1.857 1.246-2.766 2.746-2.766 1.607 0 2.53.96 2.53 2.741v6.445h3.654v-7.768c0-2.843-2.26-4.776-5.207-4.776M41.528 8.038V6.447h-3.745v12.215h3.753v-5.703c0-1.924 2.086-2.959 3.533-2.959l.043.002V6.448c-1.485 0-2.851.636-3.584 1.59M32.213 7.228v-.781h3.657v12.215h-3.657v-.78a6.445 6.445 0 1 1 0-10.653zm-3.326 8.47c1.83 0 3.314-1.408 3.314-3.143 0-1.736-1.484-3.143-3.314-3.143s-3.314 1.407-3.314 3.143c0 1.735 1.484 3.142 3.314 3.142zM16.815 18.662h3.828V1.003h-3.828zM14.177 1H10.21c0 3.251-1.494 6.235-4.1 8.187l-1.572 1.177 6.09 8.303h5.006l-5.603-7.64C12.687 8.383 14.177 4.825 14.177 1M0 18.667h4.053V1H0z"
          fill="rgba(23, 18, 15, 1)"/>
</svg>